<svg width="91px" height="13px" viewBox="0 0 91 13" version="1.1" xmlns="http://www.w3.org/2000/svg" xmlns:xlink="http://www.w3.org/1999/xlink"> <g id="Banner" stroke="none" stroke-width="1" fill="none" fill-rule="evenodd"> <g id="Desktop" transform="translate(-19.000000, -4.000000)" fill-rule="nonzero"> <g id="hr_logo_h_light" transform="translate(19.000000, 4.000000)"> <path d="M22.7770518,4.54310061 L17.7952647,4.54310061 L17.7952647,0 L16,0 L16,10.7759755 L17.7952647,10.7759755 L17.7952647,6.23613213 L22.7770518,6.23613213 L22.7770518,10.7759755 L24.5871325,10.7759755 L24.5871325,0 L22.7770518,0 L22.7770518,4.54310061 Z M32.3051805,6.01934592 C32.3051805,4.58073962 31.4610303,3.31983286 29.2393542,3.31983286 C27.4621578,3.31983286 26.3365037,4.43235507 26.2038825,5.67842337 L27.773655,6.03454629 C27.7958272,5.6641187 27.9647754,5.3178941 28.2429715,5.0727783 C28.5211676,4.82766249 28.8855769,4.70395125 29.2552543,4.72912417 C30.2031164,4.72912417 30.6176028,5.21879318 30.6176028,5.82680792 C30.6219026,5.9683449 30.566613,6.10517617 30.4652375,6.20388321 C30.363862,6.30259025 30.2257339,6.3540854 30.0845885,6.34579193 L28.2333121,6.62772258 C27.0046688,6.80578404 26.056084,7.51766796 26.056084,8.80825163 C26.056084,9.95045075 26.9891301,10.9887807 28.4996386,10.9887807 C29.3896053,11.0284564 30.2342309,10.5940796 30.7205921,9.84658156 C30.7093673,10.1548843 30.733618,10.4634563 30.7928652,10.7662039 L32.3922697,10.7662039 C32.3284281,10.3835639 32.2986791,9.99599722 32.3033737,9.60808054 L32.3033737,6.01934592 L32.3051805,6.01934592 Z M30.6168801,7.76955978 C30.6168801,9.17848918 29.7857391,9.63848128 28.8248677,9.63848128 C28.5590044,9.66600554 28.2938103,9.58052633 28.0938837,9.40286541 C27.893957,9.22520449 27.77765,8.97167017 27.7732936,8.70402053 C27.7732936,8.11084425 28.2029574,7.81407515 28.7359718,7.72685398 L30.6150733,7.44492334 L30.6150733,7.77064552 L30.6168801,7.76955978 Z M37.1977104,6.44568007 L36.0908473,6.22093176 C35.6891875,6.18757831 35.3750083,5.86020628 35.3576364,5.45693229 C35.3576364,5.00743568 35.7912752,4.61801671 36.4055968,4.61801671 C37.0747067,4.56176789 37.6688901,5.04441531 37.7520453,5.71171942 L39.2181059,5.29226163 C39.0984938,4.57313944 38.4400856,3.25468843 36.4055968,3.25468843 C34.894727,3.25468843 33.7278772,4.33355267 33.7278772,5.60712641 C33.7278772,6.61071264 34.4011014,7.44999013 35.6875632,7.73445417 L36.7647943,7.97404093 C37.3483999,8.09383431 37.6176173,8.39349872 37.6176173,8.78291768 C37.6176173,9.23241429 37.2436038,9.62183326 36.5255702,9.62183326 C36.1642861,9.65444921 35.8049086,9.54160858 35.5268829,9.30825626 C35.2488573,9.07490394 35.0750815,8.74025875 35.043971,8.37829835 L33.5331011,8.79775614 C33.6227198,9.62183326 34.4307334,11 36.5400249,11 C38.3949149,11 39.2925472,9.77130355 39.2925472,8.66276239 C39.2914631,7.58462196 38.5734295,6.74570639 37.197349,6.44604198 L37.1977104,6.44568007 Z M44.7220664,3.26916497 C43.9256373,3.23789794 43.1590182,3.5748197 42.6427684,4.18299664 L42.6427684,0.00289530828 L40.9082131,0.00289530828 L40.9082131,10.7759755 L42.6427684,10.7759755 L42.6427684,6.49091926 C42.6727617,5.56188721 43.1963806,4.84276502 44.1536382,4.84276502 C45.2456853,4.84276502 45.6496921,5.56188721 45.6496921,6.46088044 L45.6496921,10.7759755 L47.3842475,10.7759755 L47.3842473,6.16013029 C47.3846087,4.55793907 46.5166084,3.26952688 44.7213437,3.26952688 L44.7220664,3.26916497 Z M50.8403486,4.55649141 L50.8403486,3.38823452 L49.1502414,3.38823452 L49.1502414,10.7817661 L50.8847966,10.7817661 L50.8847966,7.20967954 C50.8847966,5.84635125 51.4991183,5.06715141 52.8444827,5.06715141 C53.0348144,5.06781088 53.2248269,5.08281232 53.4129109,5.11202869 L53.4129109,3.34335724 C53.2601148,3.3138642 53.1048863,3.29883885 52.9492787,3.29847996 C52.0562973,3.25052973 51.2228769,3.74765136 50.8396259,4.55685333 L50.8403486,4.55649141 Z M57.9784048,3.31947095 C55.8308086,3.31947095 54.2462201,4.93650063 54.2462201,7.14634467 C54.2462201,9.37138909 55.83117,10.9880569 57.9784048,10.9880569 C60.140817,10.9880569 61.7254055,9.37138909 61.7254055,7.14634467 C61.7673807,6.13195237 61.3885027,5.14535746 60.6786365,4.42056783 C59.9687704,3.69577819 58.99116,3.29736718 57.9776821,3.31983286 L57.9784048,3.31947095 Z M57.9784048,9.44558136 C56.9268307,9.44558136 55.9641525,8.64466671 55.9641525,7.14634467 C55.9641525,5.64802264 56.9268307,4.87714681 57.9784048,4.87714681 C59.0447949,4.87714681 59.992657,5.64838455 59.992657,7.14634467 C59.9912116,8.65986708 59.0440722,9.44594328 57.9776821,9.44594328 L57.9784048,9.44558136 Z M66.7632043,9.41590445 C65.6819982,9.41590445 64.748952,8.60015135 64.748952,7.14634467 C64.748952,5.692538 65.6819982,4.9064618 66.7335723,4.9064618 C67.568416,4.8644363 68.3096756,5.43703554 68.4811367,6.25639929 L70.0212772,5.692538 C69.7253187,4.53441469 68.6589286,3.31947095 66.7187563,3.31947095 C64.6452401,3.31947095 63.0310196,4.92166217 63.0310196,7.14634467 C62.9952075,8.15773934 63.3734579,9.13989551 64.0781302,9.86524764 C64.7828025,10.5905998 65.7527386,10.996195 66.7632043,10.9880569 C68.2742358,11.0433845 69.6343434,10.0763627 70.0805412,8.62946634 L68.5700327,8.08080542 C68.3467111,8.89003278 67.6004205,9.44185797 66.7624816,9.41735211 L66.7632043,9.41590445 Z M76.1442572,3.37339607 L73.2414067,6.4304797 L73.2414067,0.00289530828 L71.5187766,0.00289530828 L71.5187766,10.7759755 L73.2392385,10.7759755 L73.2392385,8.73840232 L74.1368709,7.79453182 L76.2761556,10.7759755 L78.4002631,10.7759755 L75.3492527,6.56583536 L78.4472406,3.37339607 L76.1442572,3.37339607 Z M82.1313636,3.31947095 C80.3097193,3.31947095 78.6214189,4.83226953 78.6214189,7.11666776 C78.6214189,9.56392709 80.3559741,10.9891426 82.3091556,10.9891426 C83.7880679,11.0602203 85.1278753,10.1208142 85.5672285,8.70474436 L84.1159839,8.24511417 C83.889682,9.0422216 83.134176,9.56945631 82.3091556,9.50602093 C81.2469449,9.52767993 80.3667655,8.68594825 80.3393513,7.62226097 L85.6120378,7.62226097 C85.6466743,7.44140708 85.6615778,7.25731814 85.6564858,7.07323814 C85.6554017,4.78847799 84.3523171,3.31983286 82.1306409,3.31983286 L82.1313636,3.31947095 Z M80.3837993,6.35954465 C80.4537933,5.44183604 81.2273867,4.73871625 82.1461796,4.75771534 C83.3310977,4.75771534 83.893744,5.51411463 83.923376,6.35954465 L80.3819924,6.35954465 L80.3837993,6.35954465 Z M90.400133,9.32144502 C89.7569021,9.32144502 89.4725073,9.05145752 89.4725073,8.40761334 L89.4725073,5.02263605 L90.9833772,5.02263605 L90.9833772,3.47943673 L89.4725073,3.47943673 L89.4725073,1.24715404 L87.9016507,1.24715404 L87.9016507,2.34085675 C87.9337814,2.64859997 87.826758,2.95460078 87.6099103,3.1749999 C87.3930625,3.39539902 87.0891344,3.50707999 86.7814171,3.47943673 L86.4070423,3.47943673 L86.4070423,5.02263605 L87.7534908,5.02263605 L87.7534908,8.69352504 C87.7534908,10.0568533 88.5911364,10.8650063 89.9375849,10.8650063 C90.2991217,10.8811999 90.6602643,10.8252241 91,10.7003356 L91,9.26281503 C90.8017567,9.29903507 90.6008946,9.31900648 90.3994103,9.32253076 L90.400133,9.32144502 Z" id="Shape" fill="#FFFFFF"></path> <polygon id="Path" fill="#AF1F24" points="2.30972692 0 0 2.78376059 2.02960727 3.90698189 0.138979671 6.25635347 2.40982108 7.57247661 1.68359829 11.328664 5.29094887 10.4710426 6.62817814 12.7433974 8.98147122 10.8165384 10.195203 13 13 10.6679032 13 0"></polygon> <path d="M5.54207104,4.04360495 L3,6.31658317 L3.93966983,7.15678356 L6.48174087,4.88380534 L5.54207104,4.04360495 Z M5.16468234,8.1587261 L6.10555278,9 L8.64762381,6.72702178 L7.70675338,5.88574788 L5.16468234,8.1587261 Z M4.5863932,2 L4.5863932,3.17907167 L9.67613807,3.17907167 L9.67613807,7.7307535 L11,7.7307535 L11,2.00178918 L4.5863932,2 Z" id="Shape" fill="#FFFFFF"></path> </g> </g> </g> </svg>
