
<svg width="410px" height="41px" viewBox="0 0 410 41" version="1.1" xmlns="http://www.w3.org/2000/svg" xmlns:xlink="http://www.w3.org/1999/xlink">
    <g id="Symbols" stroke="none" stroke-width="1" fill="none" fill-rule="evenodd" stroke-linecap="square" stroke-linejoin="bevel">
        <g id="Header-/-List" transform="translate(-1.000000, -33.000000)" fill="#232326" fill-rule="nonzero">
            <g id="Header">
                <path d="M26,72.1044367 C24.8095179,72.3698485 23.3126841,72.5973409 21.5094538,72.7869207 C19.7062235,72.9765006 18.0168146,73.0712891 16.4411765,73.0712891 C11.889333,73.0712891 8.52802206,72.4646427 6.35714286,71.2513317 C4.18626366,70.0380207 2.75070378,68.0664199 2.05042017,65.3364702 C1.35013655,62.6065204 1,58.5116573 1,53.0517578 C1,47.6676903 1.35888997,43.6107425 2.07668067,40.8807928 C2.79447138,38.1508431 4.23878466,36.1602846 6.40966387,34.9090576 C8.58054307,33.6578307 11.9243472,33.0322266 16.4411765,33.0322266 C18.0168146,33.0322266 19.6799632,33.1364939 21.4306723,33.3450317 C23.1813813,33.5535696 24.634448,33.8094985 25.789916,34.1128263 L25.789916,41.6201505 C22.2184695,41.2409908 19.8550478,41.0514138 18.6995798,41.0514138 C15.828417,41.0514138 13.8501455,41.288385 12.7647059,41.7623347 C11.6792663,42.2362843 10.9877466,43.2220846 10.6901261,44.7197654 C10.3925055,46.2174462 10.2436975,48.9947492 10.2436975,53.0517578 C10.2436975,57.1087664 10.3925055,59.8860695 10.6901261,61.3837502 C10.9877466,62.881431 11.6792663,63.8672314 12.7647059,64.341181 C13.8501455,64.8151306 15.828417,65.0521018 18.6995798,65.0521018 C21.2906292,65.0521018 23.7240783,64.8625248 26,64.4833651 L26,72.1044367 Z M68.5259631,73.0712891 C63.5063959,73.0712891 59.9321714,72.4930792 57.8031826,71.3366422 C55.6741937,70.1802051 54.3414321,68.3318294 53.8048576,65.7914595 C53.2682832,63.2510896 53,59.0045649 53,53.0517578 C53,47.0989508 53.2682832,42.852426 53.8048576,40.3120561 C54.3414321,37.7716862 55.6741937,35.9233105 57.8031826,34.7668734 C59.9321714,33.6104364 63.5063959,33.0322266 68.5259631,33.0322266 C73.5455304,33.0322266 77.1197548,33.6104364 79.2487437,34.7668734 C81.3777326,35.9233105 82.7018399,37.7716862 83.2211055,40.3120561 C83.7403711,42.852426 84,47.0989508 84,53.0517578 C84,59.0045649 83.7403711,63.2510896 83.2211055,65.7914595 C82.7018399,68.3318294 81.3777326,70.1802051 79.2487437,71.3366422 C77.1197548,72.4930792 73.5455304,73.0712891 68.5259631,73.0712891 Z M68.5532787,65.4963313 C70.8620334,65.4963313 72.4070999,65.2988818 73.1885246,64.9039768 C73.9699493,64.5090718 74.467212,63.597043 74.6803279,62.1678631 C74.8934437,60.7386831 75,57.8803661 75,53.5928262 C75,49.3052864 74.8934437,46.4469693 74.6803279,45.0177894 C74.467212,43.5886094 73.9699493,42.6765807 73.1885246,42.2816757 C72.4070999,41.8867707 70.8620334,41.6893212 68.5532787,41.6893212 C66.244524,41.6893212 64.6816981,41.8867707 63.8647541,42.2816757 C63.0478101,42.6765807 62.532788,43.6074142 62.3196721,45.0742041 C62.1065563,46.5409941 62,49.3805064 62,53.5928262 C62,57.8051461 62.1065563,60.6446584 62.3196721,62.1114483 C62.532788,63.5782383 63.0478101,64.5090718 63.8647541,64.9039768 C64.6816981,65.2988818 66.244524,65.4963313 68.5532787,65.4963313 Z M133.451049,73.0712891 L120.968531,50.8182777 L120.706294,50.8182777 L120.706294,73.0712891 L112,73.0712891 L112,34.1143634 L121.388112,34.1143634 L132.979021,54.3289309 L133.241259,54.3289309 L133.241259,34.1143634 L142,34.1143634 L142,73.0712891 L133.451049,73.0712891 Z M195,72.1044367 C193.809518,72.3698485 192.312684,72.5973409 190.509454,72.7869207 C188.706223,72.9765006 187.016815,73.0712891 185.441176,73.0712891 C180.889333,73.0712891 177.528022,72.4646427 175.357143,71.2513317 C173.186264,70.0380207 171.750704,68.0664199 171.05042,65.3364702 C170.350137,62.6065204 170,58.5116573 170,53.0517578 C170,47.6676903 170.35889,43.6107425 171.076681,40.8807928 C171.794471,38.1508431 173.238785,36.1602846 175.409664,34.9090576 C177.580543,33.6578307 180.924347,33.0322266 185.441176,33.0322266 C187.016815,33.0322266 188.679963,33.1364939 190.430672,33.3450317 C192.181381,33.5535696 193.634448,33.8094985 194.789916,34.1128263 L194.789916,41.6201505 C191.21847,41.2409908 188.855048,41.0514138 187.69958,41.0514138 C184.828417,41.0514138 182.850145,41.288385 181.764706,41.7623347 C180.679266,42.2362843 179.987747,43.2220846 179.690126,44.7197654 C179.392506,46.2174462 179.243697,48.9947492 179.243697,53.0517578 C179.243697,57.1087664 179.392506,59.8860695 179.690126,61.3837502 C179.987747,62.881431 180.679266,63.8672314 181.764706,64.341181 C182.850145,64.8151306 184.828417,65.0521018 187.69958,65.0521018 C190.290629,65.0521018 192.724078,64.8625248 195,64.4833651 L195,72.1044367 Z M222,73.0712891 L222,34.1143634 L248,34.1143634 L248,42.0982682 L231.270492,42.0982682 L231.270492,49.4026918 L245.442623,49.4026918 L245.442623,57.3865966 L231.270492,57.3865966 L231.270492,65.0873842 L248,65.0873842 L248,73.0712891 L222,73.0712891 Z M276,34.1143634 L293.431985,34.1143634 C296.701609,34.1143634 299.17156,34.6239692 300.841912,35.6431962 C302.512263,36.6624232 303.622853,38.0968693 304.173713,39.9465776 C304.724574,41.7962858 305,44.2688179 305,47.364248 C305,50.2709324 304.742343,52.649093 304.227022,54.4988012 C303.711701,56.3485095 302.609996,57.8207042 300.921875,58.9154294 C299.233754,60.0101547 296.737149,60.5575092 293.431985,60.5575092 L285.275735,60.5575092 L285.275735,73.0712891 L276,73.0712891 L276,34.1143634 Z M290.175258,52.5106894 C291.996573,52.5106894 293.302402,52.3859763 294.092784,52.1365463 C294.883165,51.8871164 295.398624,51.4074506 295.639175,50.6975346 C295.879726,49.9876186 296,48.7884542 296,47.1000053 C296,45.4115564 295.879726,44.2123919 295.639175,43.5024759 C295.398624,42.7925599 294.891756,42.3128942 294.118557,42.0634642 C293.345357,41.8140343 292.030937,41.6893212 290.175258,41.6893212 L286,41.6893212 L286,52.5106894 L290.175258,52.5106894 Z M338.927928,73.0712891 L338.927928,42.4946323 L329,42.4946323 L329,34.1143634 L358,34.1143634 L358,42.4946323 L348.01982,42.4946323 L348.01982,73.0712891 L338.927928,73.0712891 Z M397.795455,73.0712891 C392.633813,73.0712891 388.055576,72.7490082 384.060606,72.1044367 L384.060606,64.3696178 C388.373759,64.8246094 392.015137,65.0521018 394.984848,65.0521018 C396.71718,65.0521018 398.042925,64.976271 398.962121,64.8246072 C399.881318,64.6729433 400.535352,64.4264932 400.924242,64.0852495 C401.27778,63.7819217 401.498737,63.4122466 401.587121,62.9762129 C401.675505,62.5401793 401.719697,61.9240541 401.719697,61.1278187 C401.719697,60.1799195 401.648991,59.4974423 401.507576,59.0803667 C401.366161,58.663291 401.083335,58.3694467 400.659091,58.1988248 C400.234846,58.0282029 399.49243,57.8670625 398.431818,57.7153986 L391.69697,56.8054199 C389.292917,56.5020922 387.46339,55.8480515 386.208333,54.8432784 C384.953277,53.8385052 384.1048,52.5399028 383.662879,50.9474321 C383.220957,49.3549614 383,47.3644029 383,44.9756969 C383,41.6011757 383.583328,39.0418862 384.75,37.2977517 C385.916673,35.5536171 387.481051,34.4066763 389.443182,33.8568948 C391.405313,33.3071132 393.90655,33.0322266 396.94697,33.0322266 C399.174254,33.0322266 401.2159,33.1270151 403.07197,33.3165949 C404.92804,33.5061747 406.952009,33.8094979 409.143939,34.2265736 L409.143939,41.7907715 C404.936848,41.2978639 401.489912,41.0514138 398.80303,41.0514138 C395.974733,41.0514138 394.136368,41.2789062 393.287879,41.7338978 C392.828281,41.9613936 392.536617,42.2836745 392.412879,42.7007502 C392.289141,43.1178258 392.227273,43.7055145 392.227273,44.4638339 C392.227273,45.4117331 392.289141,46.0847315 392.412879,46.4828491 C392.536617,46.8809668 392.801766,47.1653323 393.208333,47.3359541 C393.614901,47.506576 394.330803,47.6677165 395.356061,47.8193803 L403.098485,48.8431064 C404.654048,49.0326862 405.935601,49.3739248 406.943182,49.8668324 C407.950763,50.35974 408.790401,51.1938788 409.462121,52.3692738 C410.487379,53.9996604 411,56.5968653 411,60.1609664 C411,63.8767313 410.452026,66.672992 409.356061,68.5498324 C408.260096,70.4266729 406.792938,71.6494445 404.954545,72.218184 C403.116152,72.7869236 400.729813,73.0712891 397.795455,73.0712891 Z" id="CONCEPTS"></path>
            </g>
        </g>
    </g>
</svg>
