
<svg width="126px" height="18px" viewBox="0 0 126 18" version="1.1" xmlns="http://www.w3.org/2000/svg" xmlns:xlink="http://www.w3.org/1999/xlink">
    <g id="Symbols" stroke="none" stroke-width="1" fill="none" fill-rule="evenodd">
        <g id="Header-/-List" fill-rule="nonzero">
            <g id="Header">
                <g id="hr_logo_h">
                    <path d="M32.9130711,6.11402767 L26.1662754,6.11402767 L26.1662754,5.68434189e-14 L23.7349624,5.68434189e-14 L23.7349624,14.4982983 L26.1662754,14.4982983 L26.1662754,8.39157357 L32.9130711,8.39157357 L32.9130711,14.4982983 L35.3644493,14.4982983 L35.3644493,5.68434189e-14 L32.9130711,5.68434189e-14 L32.9130711,6.11402767 Z M45.8169419,8.09994253 C45.8169419,6.16466144 44.6737158,4.46843016 41.664917,4.46843016 C39.2580737,4.46843016 37.7336092,5.96504754 37.5540013,7.64131743 L39.679932,8.12039079 C39.7099597,7.62207411 39.9387648,7.15631644 40.3155237,6.82657509 C40.6922826,6.49683374 41.1857992,6.33041154 41.6864504,6.36427534 C42.9701327,6.36427534 43.5314685,7.02300121 43.5314685,7.84093133 C43.5372916,8.03133355 43.4624133,8.21540543 43.3251213,8.3481908 C43.1878292,8.48097617 43.0007634,8.55024988 42.8096113,8.53909311 L40.3024421,8.91835952 C38.6385,9.1578962 37.3538389,10.1155561 37.3538389,11.8517101 C37.3538389,13.3882503 38.617456,14.7850607 40.663126,14.7850607 C41.8687433,14.8387851 43.0130694,14.2543981 43.6719248,13.2485205 C43.6567232,13.6632639 43.6895658,14.0783696 43.7698037,14.4856399 L45.9358648,14.4856399 C45.8494227,13.9708923 45.8091338,13.4495209 45.8154737,12.9276777 L45.8154737,8.09994253 L45.8169419,8.09994253 Z M43.5304897,10.4544128 C43.5304897,12.3497711 42.4048818,12.9685742 41.1035813,12.9685742 C40.7435247,13.0056012 40.3843743,12.8906105 40.1136152,12.6516126 C39.842856,12.4126148 39.6853423,12.0715485 39.6794426,11.7114935 C39.6794426,10.9135248 40.2613329,10.514297 40.9831902,10.396963 L43.5280427,10.0176966 L43.5280427,10.4558734 L43.5304897,10.4544128 Z M52.4428571,8.67346735 L50.943841,8.37112532 C50.3998763,8.32625668 49.9743858,7.88586038 49.9508591,7.34335717 C49.9508591,6.73867312 50.5381328,6.21480835 51.3701038,6.21480835 C52.2762742,6.13913977 53.080972,6.78841986 53.1935886,7.68610884 L55.179063,7.12183443 C55.0170733,6.15443731 54.1253962,4.38079479 51.3701038,4.38079479 C49.3239445,4.38079479 47.7436889,5.8321339 47.7436889,7.54540539 C47.7436889,8.89547695 48.6554313,10.0245126 50.3976765,10.4071871 L51.8565622,10.7294905 C52.6469347,10.8906422 53.0115338,11.2937649 53.0115338,11.8176297 C53.0115338,12.4223137 52.5050102,12.9461785 51.5325829,12.9461785 C51.0432985,12.990055 50.5565964,12.8382565 50.1800684,12.5243399 C49.8035404,12.2104234 49.5681972,11.7602429 49.5260645,11.2733167 L47.4799052,11.8375911 C47.601275,12.9461785 48.6955617,14.8001535 51.5521587,14.8001535 C54.0642218,14.8001535 55.2798783,13.147253 55.2798783,11.6559911 C55.2784101,10.2056257 54.3059828,9.07659005 52.4423677,8.67395421 L52.4428571,8.67346735 Z M62.6330341,4.40026932 C61.5544362,4.35820743 60.51621,4.81145049 59.8170568,5.62959882 L59.8170568,0.00632922119 L57.4679621,0.00632922119 L57.4679621,14.4982983 L59.8170568,14.4982983 L59.8170568,8.73432524 C59.8576766,7.48454749 60.5668095,6.51715037 61.8632162,6.51715037 C63.342167,6.51715037 63.8893103,7.48454749 63.8893103,8.6939156 L63.8893103,14.4982983 L66.238405,14.4982983 L66.238405,8.2907929 C66.238405,6.13447592 65.0633683,4.40075618 62.6320553,4.40075618 L62.6330341,4.40026932 Z M70.9179974,6.13447592 L70.9179974,4.5604473 L68.6286089,4.5604473 L68.6286089,14.5085224 L70.9777036,14.5085224 L70.9777036,9.69977491 C70.9777036,7.86576135 71.8096746,6.81754495 73.6316912,6.81754495 C73.8894564,6.81842105 74.1467896,6.83860176 74.4015091,6.87791598 L74.4015091,4.50007627 C74.194579,4.46039797 73.9843539,4.44018514 73.7736156,4.43970523 C72.5643207,4.37614945 71.4362389,5.04565066 70.9179974,6.13447592 Z M80.5850114,4.47037761 C77.6765386,4.47037761 75.5305427,6.64568225 75.5305427,9.61846876 C75.5305427,12.6117035 77.6765386,14.7865213 80.5850114,14.7865213 C83.5135495,14.7865213 85.6595454,12.6117035 85.6595454,9.61846876 C85.717074,8.25362003 85.2044022,6.9259158 84.2431734,5.95038473 C83.2819446,4.97485366 81.9578318,4.43844355 80.5850114,4.46843016 L80.5850114,4.47037761 Z M80.5850114,12.7115105 C79.1608728,12.7115105 77.8571252,11.6340823 77.8571252,9.61846876 C77.8571252,7.60285524 79.1608728,6.56583669 80.5850114,6.56583669 C82.0292153,6.56583669 83.3128977,7.6033421 83.3128977,9.61846876 C83.3128977,11.6520962 82.0292153,12.7071287 80.5850114,12.7071287 L80.5850114,12.7115105 Z M92.4821973,12.6715877 C91.0179282,12.6715877 89.754311,11.5741981 89.754311,9.61846876 C89.754311,7.66273941 91.0179282,6.60527261 92.4420669,6.60527261 C93.5726893,6.54873791 94.5765713,7.31902544 94.8087798,8.42127223 L96.8945801,7.66273941 C96.4932764,6.10477727 95.049562,4.47037761 92.4220017,4.47037761 C89.6138548,4.47037761 87.4277285,6.62572086 87.4277285,9.61846876 C87.3792284,10.9790446 87.89149,12.3002874 88.8458222,13.2760654 C89.8001544,14.2518433 91.1137313,14.7974691 92.4821973,14.7865213 C94.5285755,14.8609506 96.3705587,13.5600673 96.9748408,11.613634 L94.9291709,10.8755495 C94.6253218,11.9622497 93.6155357,12.7026123 92.4821973,12.6696402 L92.4821973,12.6715877 Z M105.186884,4.54097277 L101.258023,8.65350596 L101.258023,0.00632922119 L98.9280152,0.00632922119 L98.9280152,14.4982983 L101.258023,14.4982983 L101.258023,11.7572587 L102.47368,10.4875195 L105.370897,14.4982983 L108.247559,14.4982983 L104.114621,8.83461906 L108.309223,4.54048591 L105.189331,4.54048591 L105.186884,4.54097277 Z M113.295176,4.46843016 C110.828137,4.46843016 108.541685,6.50351821 108.541685,9.57659852 C108.541685,12.8687673 110.89078,14.7860344 113.535958,14.7860344 C115.538532,14.8805563 117.352095,13.6163078 117.946384,11.7114935 L115.980974,11.0931773 C115.674496,12.1654838 114.65132,12.8747448 113.534001,12.7894086 C112.095457,12.8185453 110.903437,11.6862081 110.86631,10.2552858 L118.006579,10.2552858 C118.053514,10.0119962 118.073698,9.76434817 118.066775,9.51671436 C118.069222,6.4441209 116.303975,4.46843016 113.297134,4.46843016 L113.295176,4.46843016 Z M110.928463,8.55808078 C111.023256,7.32353585 112.070927,6.37766592 113.315241,6.40322439 C114.919967,6.40322439 115.681954,7.42076841 115.722085,8.55808078 L110.926016,8.55808078 L110.928463,8.55808078 Z M124.493506,12.5425689 C123.622384,12.5425689 123.23723,12.179369 123.23723,11.3132394 L123.23723,6.75912137 L125.283389,6.75912137 L125.283389,4.68313682 L123.23723,4.68313682 L123.23723,1.67967793 L121.109831,1.67967793 L121.109831,3.15097843 C121.153346,3.56496913 121.008405,3.97661587 120.714729,4.27310717 C120.421054,4.56959846 120.009447,4.71983697 119.592708,4.68264995 L119.086184,4.68264995 L119.086184,6.75863451 L120.909669,6.75863451 L120.909669,11.6968876 C120.909669,13.5309012 122.044086,14.6180666 123.86757,14.6180666 C124.357197,14.6398511 124.84629,14.5645498 125.306391,14.3965439 L125.306391,12.4636971 C125.03806,12.5122367 124.766198,12.5389403 124.493506,12.5435427 L124.493506,12.5425689 Z" id="Shape" fill="#404041"></path>
                    <polygon id="Path" fill="#AF1F24" points="3.79018868 5.68434189e-14 0.592105263 3.85809503 3.40133365 5.415299 0.784040122 8.67136162 3.92828208 10.4954151 2.92324136 15.700726 7.91803447 14.5121235 9.76958269 17.6614463 13.0279885 14.991455 14.7085402 18.0175781 18.5921053 14.7854571 18.5921053 0.000498784102"></polygon>
                    <path d="M7.64597242,2.57393973 L7.64597242,4.19868247 L13.7818536,4.19868247 L13.7818536,10.4727345 L15.3778195,10.4727345 L15.3778195,2.57640595 L7.64597242,2.57393973 Z M8.343122,11.0646263 L9.47737712,12.2262137 L12.5419405,9.09313363 L11.4076854,7.93351913 L8.343122,11.0646263 Z M8.79807843,5.39233074 L5.73496241,8.52393111 L6.86777016,9.68206588 L9.93233355,6.54898578 L8.79807843,5.39233074 Z" id="Shape" fill="#FFFFFF"></path>
                </g>
            </g>
        </g>
    </g>
</svg>
