<svg width="16px" height="25px" viewBox="0 0 16 25" version="1.1" xmlns="http://www.w3.org/2000/svg" xmlns:xlink="http://www.w3.org/1999/xlink">
    <g id="Symbols" stroke="none" stroke-width="1" fill="none" fill-rule="evenodd">
        <g id="Heroku-Loading" transform="translate(-140.000000, -31.000000)" fill-rule="nonzero">
            <g id="logos-heroku" transform="translate(140.000000, 31.000000)">
                <g id="Icon">
                    <path d="M1.7551875,24.8930625 L1.7551875,22.719375 C1.7551875,22.566125 1.6428125,22.5 1.510375,22.5 C1.244875,22.5 0.91325,22.566125 0.61225,22.6988125 L0.61225,24.8930625 L0,24.8930625 L0,20.8570625 L0.6121875,20.8570625 L0.6121875,22.1885625 C0.9031875,22.0815625 1.2500625,21.9898125 1.5970625,21.9898125 C2.1531875,21.9898125 2.3624375,22.331625 2.3624375,22.8008125 L2.3624375,24.8930625 L1.7551875,24.8930625 L1.7551875,24.8930625 Z M3.505125,23.576625 C3.5255,24.30625 3.6684375,24.4491875 4.11725,24.4491875 C4.469375,24.4491875 4.867375,24.33175 5.173625,24.214375 L5.275625,24.6735 C4.949,24.821625 4.5510625,24.9644375 4.0766875,24.9644375 C3.0560625,24.9644375 2.8978125,24.4033125 2.8978125,23.5101875 C2.8978125,23.0205 2.933625,22.5765 3.0509375,22.1683125 C3.3570625,22.0509375 3.7653125,21.98975 4.2805,21.98975 C5.1175625,21.98975 5.3725625,22.454125 5.3725625,23.265375 L5.3725625,23.576625 L3.505125,23.576625 Z M4.2805,22.5 C4.0970625,22.5 3.806125,22.505125 3.5663125,22.5508125 C3.5409375,22.6733125 3.510125,22.84175 3.4999375,23.1530625 L4.7755625,23.1530625 C4.7755625,22.7294375 4.699,22.5 4.2805,22.5 Z M6.5203125,22.6988125 L6.5203125,24.8930625 L5.908,24.8930625 L5.908,22.423375 C6.423375,22.1428125 6.9693125,22.0560625 7.326625,22.0305625 L7.326625,22.5408125 C7.076625,22.5611875 6.760125,22.5918125 6.520375,22.6988125 L6.5203125,22.6988125 Z M8.9439375,24.9644375 C8.0304375,24.9644375 7.6171875,24.5155 7.6171875,23.4898125 C7.6171875,22.403 8.163125,21.9898125 8.9439375,21.9898125 C9.8571875,21.9898125 10.2705625,22.4386875 10.2705625,23.4643125 C10.2705625,24.5511875 9.7245,24.9644375 8.9439375,24.9644375 Z M8.9439375,22.5000625 C8.4744375,22.5000625 8.21425,22.770375 8.21425,23.4898125 C8.21425,24.2756875 8.433625,24.4491875 8.9439375,24.4491875 C9.4133125,24.4491875 9.6735625,24.18375 9.6735625,23.4643125 C9.6735625,22.6784375 9.4541875,22.5 8.9439375,22.5 L8.9439375,22.5000625 Z M13.2245625,24.8930625 L12.505,24.8930625 C12.33675,24.4440625 12.101875,23.9848125 11.739625,23.5868125 L11.418125,23.5868125 L11.418125,24.8930625 L10.805875,24.8930625 L10.805875,20.8570625 L11.418125,20.8570625 L11.418125,23.1734375 L11.7039375,23.1734375 C12.0151875,22.8519375 12.2549375,22.454125 12.423375,22.061125 L13.112125,22.061125 C12.8775,22.5356875 12.5765,22.9540625 12.2396875,23.2959375 C12.6428125,23.8061875 12.959125,24.3470625 13.2245,24.8930625 L13.2245625,24.8930625 Z M14.37225,24.9644375 C13.8161875,24.9644375 13.607,24.6226875 13.607,24.1531875 L13.607,22.061125 L14.214125,22.061125 L14.214125,24.2296875 C14.214125,24.3829375 14.32625,24.4491875 14.4589375,24.4491875 C14.7243125,24.4491875 15.0865625,24.3829375 15.3876875,24.2501875 L15.3876875,22.061125 L16,22.061125 L16,24.5205 C15.2754375,24.9185625 14.7191875,24.9644375 14.37225,24.9644375 L14.37225,24.9644375 Z" id="Icon-Shape" fill="#6762A6"></path>
                    <path d="M14.10175,19.8283125 L1.891125,19.8283125 C0.8465625,19.8283125 0,18.98175 0,17.937375 L0,1.891 C0,0.846625 0.846625,0 1.8910625,0 L14.1016875,0 C15.1460625,0 15.9929375,0.846625 15.9929375,1.891 L15.9929375,17.937375 C15.9929375,18.98175 15.1460625,19.8283125 14.1016875,19.8283125 L14.10175,19.8283125 Z" id="Icon-Path" fill="#6762A6"></path>
                    <path d="M10.0225,17.1 L10.0225,9.225625 C10.0225,9.225625 10.5346875,7.34125 3.7135625,9.9965 C3.7010625,10.0301875 3.7010625,2.715 3.7010625,2.715 L5.9298125,2.70125 L5.9298125,7.3881875 C5.9298125,7.3881875 12.1701875,4.930375 12.1701875,9.2521875 L12.1701875,17.1 L10.0225625,17.1 L10.0225,17.1 Z M11.2925,5.537875 L8.9285,5.537875 C9.7794375,4.4975 10.54975,2.7149375 10.54975,2.7149375 L12.994125,2.7149375 C12.994125,2.7149375 12.575625,3.876625 11.2925625,5.537875 L11.2925,5.537875 Z M3.7415625,17.086375 L3.7415625,12.602125 L5.9839375,14.8444375 L3.7415625,17.086375 Z" id="Icon-Shape" fill="#FFFFFF"></path>
                </g>
                <rect id="ViewBox" x="0" y="0" width="16" height="25"></rect>
            </g>
        </g>
    </g>
</svg>
